# xmcd
#
# Track frame offsets:
#	150
#	12802
#	24085
#	35320
#	46805
#	56182
#	69792
#	84775
#	98550
#	109300
#	119907
#	129182
#	138825
#	147550
#	157417
#	171642
#	185675
#	199142
#	212482
#
# Disc length: 2970 seconds
#
# Revision: 1
# Processed by: cddbd v1.5PL3 Copyright (c) Steve Scherf et al.
# Submitted via: audiograbber 1.82.01
#
DISCID=0b0b9813
DTITLE=Mickey and Sylvia - The Willow Sessions
DYEAR=1995
DGENRE=Blues
TTITLE0=Love Is Strange
TTITLE1=He Gave Me Everything
TTITLE2=Love Drops
TTITLE3=The Hucklebuck
TTITLE4=Baby You're So Fine (1)
TTITLE5=Mickey's Blues
TTITLE6=Anytime
TTITLE7=Darling (I Miss You So)
TTITLE8=Walking In The Rain
TTITLE9=I'm Guilty
TTITLE10=Loving You Darling
TTITLE11=Sylvia's Blues
TTITLE12=Since I Fell For You
TTITLE13=Baby You're So Fine (2)
TTITLE14=Soulin' With Mickey and Sylvia
TTITLE15=Because You Do It To Me
TTITLE16=Our Love
TTITLE17=I Can't Help It
TTITLE18=Love Is The Only Thing
EXTD=
EXTT0=
EXTT1=
EXTT2=
EXTT3=
EXTT4=
EXTT5=
EXTT6=
EXTT7=
EXTT8=
EXTT9=
EXTT10=
EXTT11=
EXTT12=
EXTT13=
EXTT14=
EXTT15=
EXTT16=
EXTT17=
EXTT18=
PLAYORDER=
